<svg width="32" height="32" viewBox="0 0 32 32" fill="none" xmlns="http://www.w3.org/2000/svg">
<path d="M5.33334 8.00002C5.33334 7.6464 5.47381 7.30726 5.72386 7.05721C5.97391 6.80716 6.31305 6.66669 6.66667 6.66669H25.3333C25.687 6.66669 26.0261 6.80716 26.2761 7.05721C26.5262 7.30726 26.6667 7.6464 26.6667 8.00002C26.6667 8.35364 26.5262 8.69278 26.2761 8.94283C26.0261 9.19288 25.687 9.33335 25.3333 9.33335H6.66667C6.31305 9.33335 5.97391 9.19288 5.72386 8.94283C5.47381 8.69278 5.33334 8.35364 5.33334 8.00002ZM5.33334 16C5.33334 15.6464 5.47381 15.3073 5.72386 15.0572C5.97391 14.8072 6.31305 14.6667 6.66667 14.6667H25.3333C25.687 14.6667 26.0261 14.8072 26.2761 15.0572C26.5262 15.3073 26.6667 15.6464 26.6667 16C26.6667 16.3536 26.5262 16.6928 26.2761 16.9428C26.0261 17.1929 25.687 17.3334 25.3333 17.3334H6.66667C6.31305 17.3334 5.97391 17.1929 5.72386 16.9428C5.47381 16.6928 5.33334 16.3536 5.33334 16ZM6.66667 22.6667C6.31305 22.6667 5.97391 22.8072 5.72386 23.0572C5.47381 23.3073 5.33334 23.6464 5.33334 24C5.33334 24.3536 5.47381 24.6928 5.72386 24.9428C5.97391 25.1929 6.31305 25.3334 6.66667 25.3334H25.3333C25.687 25.3334 26.0261 25.1929 26.2761 24.9428C26.5262 24.6928 26.6667 24.3536 26.6667 24C26.6667 23.6464 26.5262 23.3073 26.2761 23.0572C26.0261 22.8072 25.687 22.6667 25.3333 22.6667H6.66667Z" fill="black"/>
</svg>
